Coordinates
version=1
nRows=19
nColumns=24
inDegrees=yes

Units are S.I. units (second, meters, Newtons, ...)
Angles are in degrees.

endheader
time	pelvis_tilt	pelvis_list	pelvis_rotation	pelvis_tx	pelvis_ty	pelvis_tz	hip_flexion_r	hip_adduction_r	hip_rotation_r	knee_angle_r	ankle_angle_r	subtalar_angle_r	mtp_angle_r	hip_flexion_l	hip_adduction_l	hip_rotation_l	knee_angle_l	ankle_angle_l	subtalar_angle_l	mtp_angle_l	lumbar_extension	lumbar_bending	lumbar_rotation
      0.95850000	      3.38416526	     -2.26436051	     -2.36526376	     -0.36336542	      1.08705588	      0.30133405	      2.85078824	      7.96173277	     -3.78285236	     -9.31449541	     -2.87394513	     -7.67853316	      5.80966378	      8.09072509	     -2.98662705	     -0.46642361	    -58.56725883	     -4.66460455	     -8.71550802	     19.19609128	      0.34054217	      7.80138193	      2.03640054
      0.96266667	      3.41346210	     -2.25068300	     -2.50623497	     -0.35848727	      1.08768085	      0.30160869	      2.40453884	      7.93886276	     -3.72881036	     -9.08052893	     -2.79940605	     -7.61544430	      5.81053281	      8.55584006	     -2.90569670	     -0.26030829	    -58.24804552	     -4.11986801	     -9.27152394	     18.98442366	      0.27274641	      7.82225524	      2.14692511
      0.96683333	      3.41757571	     -2.27681570	     -2.57435876	     -0.35363604	      1.08822246	      0.30206346	      1.95659913	      7.98726476	     -3.57800198	     -8.77377549	     -2.75315489	     -7.51618510	      5.81193684	      9.05993719	     -2.89374730	      0.01089628	    -57.90427105	     -3.82213336	     -9.60719925	     18.85888788	      0.25240417	      7.78676865	      2.24328957
      0.97100000	      3.43343765	     -2.27925678	     -2.68957933	     -0.34878878	      1.08877235	      0.30240546	      1.50806936	      7.99129581	     -3.46214395	     -8.49777123	     -2.68672719	     -7.43266722	      5.81225404	      9.52372236	     -2.83909557	      0.24731934	    -57.50097137	     -3.38951503	    -10.10629567	     18.69272122	      0.22399494	      7.78445453	      2.37569907
      0.97516667	      3.43262192	     -2.26270080	     -2.86228174	     -0.34406192	      1.08927900	      0.30268884	      1.10954549	      7.96166641	     -3.37883788	     -8.28076085	     -2.58047563	     -7.20670654	      5.80522656	      9.99583614	     -2.75724175	      0.41364974	    -57.03561812	     -3.29607965	    -10.97511872	     17.84217272	      0.00632977	      7.85100246	      2.91358277
      0.97933333	      3.45319618	     -2.26666299	     -2.94220262	     -0.33914482	      1.08979605	      0.30310127	      0.63318889	      7.97813463	     -3.24604870	     -7.95906258	     -2.53847705	     -7.16987102	      5.80422877	     10.42542148	     -2.71248085	      0.68244058	    -56.52894501	     -2.95501535	    -11.17549088	     17.73070380	      0.09855000	      7.81815600	      2.96607118
      0.98350000	      3.43773462	     -2.27760758	     -3.03973175	     -0.33434226	      1.09020899	      0.30346870	      0.21309500	      7.99701993	     -3.10303956	     -7.66510573	     -2.49022403	     -7.13229409	      5.80237571	     10.89557954	     -2.67337445	      0.93274590	    -56.00679813	     -2.55143171	    -11.53464186	     17.59393616	      0.09091801	      7.79855657	      3.03732332
      0.98766667	      3.41416704	     -2.27537602	     -3.15426216	     -0.32953385	      1.09059141	      0.30383687	     -0.19311951	      7.99861372	     -2.96955138	     -7.38390799	     -2.43781602	     -7.09451088	      5.79967278	     11.35424620	     -2.62123961	      1.16319221	    -55.42673338	     -2.22110822	    -11.93609211	     17.44299207	      0.09576402	      7.78141104	      3.13335071
      0.99183333	      3.36835103	     -2.26795074	     -3.33223546	     -0.32485892	      1.09091134	      0.30415924	     -0.54810081	      7.98128703	     -2.81616762	     -7.14940434	     -2.36640237	     -7.00628926	      5.77823168	     11.82706349	     -2.56218077	      1.32259327	    -54.79423318	     -2.18876402	    -12.82482667	     16.64267986	     -0.05680820	      7.82530303	      3.55850902
      0.99600000	      3.36985324	     -2.26875376	     -3.41045258	     -0.31997553	      1.09127789	      0.30450380	     -0.99744511	      7.98586428	     -2.70975587	     -6.83703053	     -2.31941773	     -6.97078875	      5.77486277	     12.22693463	     -2.51025268	      1.58928576	    -54.11536635	     -1.89638996	    -13.01880397	     16.51345299	      0.05193835	      7.81255876	      3.61689901
      1.00016667	      3.34124015	     -2.27754560	     -3.50320787	     -0.31519655	      1.09154841	      0.30483037	     -1.40151888	      7.99708284	     -2.57250158	     -6.54407254	     -2.26397403	     -6.93449255	      5.76995295	     12.65796998	     -2.47063628	      1.83541706	    -53.41788234	     -1.58141270	    -13.38280355	     16.35022886	      0.06514929	      7.79546476	      3.69562297
      1.00433333	      3.27684793	     -2.26911575	     -3.62092491	     -0.31046715	      1.09175057	      0.30504383	     -1.74450922	      7.97516011	     -2.47785308	     -6.29649515	     -2.22788476	     -6.91190561	      5.76763306	     13.11172714	     -2.40264755	      2.08737124	    -52.65918466	     -1.42804596	    -13.58099012	     16.27677669	      0.01562158	      7.81964653	      3.73068667
      1.00850000	      3.26633511	     -2.30384787	     -3.68921416	     -0.30564672	      1.09197202	      0.30544023	     -2.18711222	      8.02508276	     -2.31306397	     -5.96162520	     -2.15433155	     -6.87186511	      5.76134670	     13.49749921	     -2.40163022	      2.31655851	    -51.89090278	     -1.14382988	    -14.14620677	     16.09860135	      0.12180160	      7.79895764	      3.85923542
      1.01266667	      3.17082623	     -2.29163720	     -3.88592112	     -0.30090487	      1.09207192	      0.30571556	     -2.48383622	      7.99223510	     -2.19898037	     -5.74527343	     -2.06999042	     -6.87034256	      5.73798535	     13.94211178	     -2.34848746	      2.45078557	    -51.03531183	     -1.13761882	    -15.10010629	     15.58496239	      0.10240739	      7.84017886	      4.14380878
      1.01683333	      3.13761301	     -2.32907488	     -3.91495453	     -0.29611983	      1.09217823	      0.30598870	     -2.89730255	      8.03847587	     -2.06411657	     -5.42260166	     -2.03646859	     -6.80311890	      5.73194250	     14.33529077	     -2.34054473	      2.74738970	    -50.18943660	     -1.06342689	    -15.27417963	     15.43518171	      0.14905074	      7.86655464	      4.21954084
      1.02100000	      3.08740408	     -2.32958440	     -4.06736142	     -0.29132908	      1.09228143	      0.30620187	     -3.25867651	      8.01490680	     -1.96427476	     -5.17292221	     -1.96949192	     -6.72240592	      5.65362547	     14.70167674	     -2.29524151	      2.91566818	    -49.23688634	     -1.40947984	    -16.22007552	     13.97187643	      0.14305110	      7.99695286	      4.69615084
      1.02516667	      3.03159580	     -2.37878337	     -4.09844672	     -0.28658258	      1.09226713	      0.30644827	     -3.63735930	      8.07224181	     -1.85297960	     -4.86750268	     -1.90951184	     -6.68473933	      5.64680595	     15.09588030	     -2.30393084	      3.20169729	    -48.33492167	     -1.09823686	    -16.38355923	     13.83650098	      0.17242901	      7.97272494	      4.71065307
      1.02933333	      2.95146394	     -2.40868928	     -4.18708195	     -0.28186749	      1.09220071	      0.30659853	     -3.96378405	      8.08940257	     -1.78391481	     -4.62232855	     -1.86651021	     -6.66870967	      5.64302982	     15.49105163	     -2.28895719	      3.45851690	    -47.37016284	     -0.96522343	    -16.52193161	     13.76448782	      0.14343244	      8.02861694	      4.71258882
      1.03350000	      2.93467436	     -2.46446076	     -4.20563189	     -0.27702307	      1.09218155	      0.30688105	     -4.40599262	      8.15602116	     -1.65630013	     -4.27914774	     -1.78649066	     -6.64227270	      5.63373380	     15.80552612	     -2.30903546	      3.70998400	    -46.38071212	     -0.81762963	    -16.93484486	     13.59727782	      0.28002256	      8.05802280	      4.76163386
